Coordinates
version=1
nRows=10
nColumns=40
inDegrees=yes

Units are S.I. units (second, meters, Newtons, ...)
Angles are in degrees.

endheader
time	pelvis_tilt	pelvis_list	pelvis_rotation	pelvis_tx	pelvis_ty	pelvis_tz	hip_flexion_r	hip_adduction_r	hip_rotation_r	knee_angle_r	knee_angle_r_beta	ankle_angle_r	subtalar_angle_r	mtp_angle_r	hip_flexion_l	hip_adduction_l	hip_rotation_l	knee_angle_l	knee_angle_l_beta	ankle_angle_l	subtalar_angle_l	mtp_angle_l	lumbar_extension	lumbar_bending	lumbar_rotation	arm_flex_r	arm_add_r	arm_rot_r	elbow_flex_r	pro_sup_r	wrist_flex_r	wrist_dev_r	arm_flex_l	arm_add_l	arm_rot_l	elbow_flex_l	pro_sup_l	wrist_flex_l	wrist_dev_l
      4.73000000	     -2.26209209	     -7.04294070	      3.57282145	      1.02193566	      0.93059173	      0.50247566	     12.43489266	      4.62043995	    -20.13359522	     16.99871986	     16.99871986	      9.50196800	      3.10888463	     -2.50626150	     26.19431654	    -14.53078200	      1.90670394	     68.61997509	     68.61997509	      6.33494411	    -16.95094219	      6.87369695	     -9.73493693	      7.06417632	      1.51452467	     12.95127666	    -14.78779573	     -4.92153921	     47.00175233	     45.27027182	      0.00000000	      0.00000000	      5.32787422	     -9.26118584	     -2.42011410	     42.67833458	     45.56274764	      0.00000000	      0.00000000
      4.74135714	     -2.34046519	     -7.02214960	      3.64070559	      1.02064369	      0.93123827	      0.50293457	     11.52717893	      4.79287238	    -20.18530022	     16.22396622	     16.22396622	      9.79164972	      3.64105377	     -2.53871692	     27.84309473	    -14.33700464	      1.85470963	     67.32574599	     67.32574599	      6.63247702	    -17.15969579	      6.92090622	     -9.80215744	      7.07892254	      1.52014782	     15.57552937	    -14.66721041	     -4.89589411	     48.22919853	     45.24371953	      0.00000000	      0.00000000	      3.99085347	     -8.94286729	     -2.03560615	     41.18693515	     45.50872691	      0.00000000	      0.00000000
      4.75271429	     -2.39590606	     -6.99838513	      3.69758492	      1.01940713	      0.93181064	      0.50338941	     10.59907404	      4.98085650	    -20.18121628	     15.43120015	     15.43120015	     10.04131741	      4.04159553	     -2.58588430	     29.27747793	    -14.13420753	      1.74438446	     65.75713675	     65.75713675	      6.87737119	    -17.35770226	      7.11214734	     -9.90271632	      7.11850952	      1.60330776	     18.21276909	    -14.60837612	     -4.70007715	     49.40731510	     45.21213631	      0.00000000	      0.00000000	      2.79613688	     -8.60321951	     -1.54440278	     39.45848333	     45.44419906	      0.00000000	      0.00000000
      4.76407143	     -2.47313019	     -6.98078365	      3.72096746	      1.01820300	      0.93224525	      0.50379157	      9.70813366	      5.16887059	    -20.17112453	     14.64985643	     14.64985643	     10.19598063	      4.43645284	     -2.92405318	     30.57873460	    -13.92654419	      1.59266938	     63.94662973	     63.94662973	      7.22014732	    -17.43549232	      7.80251460	     -9.94040635	      7.16548517	      1.92744003	     20.74302472	    -14.87487715	     -3.69942485	     50.20255607	     45.17328892	      0.00000000	      0.00000000	      2.25658972	     -8.21269871	     -0.42589144	     36.44413040	     45.33825682	      0.00000000	      0.00000000
      4.77542857	     -2.53184926	     -6.94777170	      3.76713622	      1.01702057	      0.93262047	      0.50414266	      8.80506342	      5.35812450	    -20.04880817	     13.85431010	     13.85431010	     10.41413325	      4.67024818	     -2.91535030	     31.67113358	    -13.68002245	      1.42037854	     61.78689231	     61.78689231	      7.34197777	    -17.61127141	      8.33300806	    -10.07617993	      7.16838185	      2.09213034	     23.17519829	    -14.79672547	     -3.67048772	     51.47224907	     45.14444947	      0.00000000	      0.00000000	      0.99617705	     -7.90245140	     -0.02800813	     35.31329663	     45.27846653	      0.00000000	      0.00000000
      4.78678571	     -2.60975656	     -6.93491521	      3.78923199	      1.01590115	      0.93280709	      0.50442737	      7.91811353	      5.56240343	    -19.94755792	     13.04504823	     13.04504823	     10.61512564	      4.95625326	     -2.96564416	     32.64627954	    -13.43973531	      1.24098460	     59.36678972	     59.36678972	      7.46281843	    -17.68796902	      8.98891158	    -10.16290098	      7.18439741	      2.23593794	     25.55357161	    -14.70963830	     -3.52432481	     52.70495671	     45.11197493	      0.00000000	      0.00000000	     -0.16216847	     -7.60573336	      0.46499135	     34.01982776	     45.20586796	      0.00000000	      0.00000000
      4.79814286	     -2.71156111	     -6.93463728	      3.81005756	      1.01484413	      0.93280795	      0.50463311	      7.03765458	      5.77663110	    -19.85620147	     12.19840510	     12.19840510	     10.78995054	      5.26022926	     -3.08698854	     33.50330774	    -13.19227991	      1.05907325	     56.65796096	     56.65796096	      7.59298072	    -17.70227382	      9.72021741	    -10.21028600	      7.19447460	      2.35276579	     27.89302553	    -14.63116597	     -3.24844283	     54.02210954	     45.07228867	      0.00000000	      0.00000000	     -1.27527238	     -7.31535911	      1.09063272	     32.62129696	     45.11500046	      0.00000000	      0.00000000
      4.80950000	     -2.84122330	     -6.92770093	      3.81008720	      1.01378419	      0.93262666	      0.50473233	      6.22763693	      5.95980746	    -19.74342253	     11.43068649	     11.43068649	     10.96871985	      5.53999269	     -3.26108123	     34.22927299	    -12.87777771	      0.93288239	     53.64430614	     53.64430614	      7.66098070	    -17.60633500	     10.35800360	    -10.22496127	      7.19898297	      2.52828338	     30.01079148	    -14.53611720	     -2.94400405	     55.39667669	     45.02845292	      0.00000000	      0.00000000	     -2.35230259	     -7.08201255	      1.70779719	     31.44311830	     45.02175996	      0.00000000	      0.00000000
      4.82085714	     -3.03675337	     -6.93555855	      3.78577089	      1.01275540	      0.93217864	      0.50474280	      5.45666083	      6.15313525	    -19.65077792	     10.58079508	     10.58079508	     10.87765695	      5.84758862	     -4.21296916	     34.89364262	    -12.58267969	      0.77550344	     50.37676837	     50.37676837	      7.56679034	    -17.30896268	     10.70483003	    -10.18978305	      7.21933103	      3.04817359	     31.67135952	    -15.18409996	     -1.62324219	     57.84477294	     44.93865113	      0.00000000	      0.00000000	     -3.08720757	     -6.98908483	      4.23777807	     29.75141151	     44.69154260	      0.00000000	      0.00000000
      4.83221429	     -3.23706219	     -6.92085860	      3.77632438	      1.01180296	      0.93161789	      0.50465946	      4.74536466	      6.30030285	    -19.50482796	      9.88196056	      9.88196056	     11.13202341	      6.06855526	     -4.27216923	     35.38172089	    -12.19954085	      0.69743686	     46.81697097	     46.81697097	      7.48234474	    -16.86669526	     11.05697542	    -10.13993677	      7.16896312	      3.08250245	     33.71337126	    -14.88204147	     -1.72701165	     59.35445250	     44.90731304	      0.00000000	      0.00000000	     -4.42530919	     -6.79099203	      4.66147101	     29.25053307	     44.61589468	      0.00000000	      0.00000000
